<svg width="33" height="32" viewBox="0 0 33 32" fill="none" xmlns="http://www.w3.org/2000/svg">
<g clip-path="url(#clip0_2_27)">
<path d="M22.9 0.799988H10.1C7.44908 0.799988 5.30005 2.94902 5.30005 5.59999V26.4C5.30005 29.051 7.44908 31.2 10.1 31.2H22.9C25.551 31.2 27.7 29.051 27.7 26.4V5.59999C27.7 2.94902 25.551 0.799988 22.9 0.799988Z" stroke="#939597" stroke-width="2" stroke-linecap="round" stroke-linejoin="round"/>
<path d="M16.5 0.799988H10.1C7.44908 0.799988 5.30005 2.94902 5.30005 5.59999V26.4C5.30005 29.051 7.44908 31.2 10.1 31.2H16.5C19.151 31.2 21.3 29.051 21.3 26.4V5.59999C21.3 2.94902 19.151 0.799988 16.5 0.799988Z" stroke="#939597" stroke-width="2"/>
<path d="M17.7 17.6C18.3627 17.6 18.9 17.0628 18.9 16.4C18.9 15.7373 18.3627 15.2 17.7 15.2C17.0373 15.2 16.5 15.7373 16.5 16.4C16.5 17.0628 17.0373 17.6 17.7 17.6Z" fill="#939597"/>
</g>
<defs>
<clipPath id="clip0_2_27">
<rect width="32" height="32" fill="white" transform="translate(0.5)"/>
</clipPath>
</defs>
</svg>
